<svg xmlns="http://www.w3.org/2000/svg" version="1.1" xmlns:xlink="http://www.w3.org/1999/xlink" width="566" height="142" viewBox="0 0 566 142"><svg xml:space="preserve" width="566" height="142" data-version="2" data-id="lg_22IOEIBYgnVIghQtWP" viewBox="0 0 566 142" x="0" y="0">
    <circle r="50" fill="#fff" transform="matrix(1.3887 0 0 1.3887 74.712 71)"></circle>
    <g transform="matrix(1 0 0 1 374.5 71.574)">
        <filter id="a" width="140%" height="140%" x="-20%" y="-20%">
            <feGaussianBlur in="SourceAlpha"></feGaussianBlur>
            <feOffset result="oBlur"></feOffset>
            <feFlood flood-color="#FFF" flood-opacity="1"></feFlood>
            <feComposite in2="oBlur" operator="in"></feComposite>
            <feMerge>
                <feMergeNode></feMergeNode>
                <feMergeNode in="SourceGraphic"></feMergeNode>
            </feMerge>
        </filter>
        <g filter="url(#a)">
            <path fill="#fff" d="M-186.225 51.43V-54.36h18.47V51.43Z" paint-order="stroke"></path>
            <rect width="18.47" height="105.79" x="-9.235" y="-52.895" fill="none" rx="0" ry="0" transform="matrix(1 0 0 1 -176.49 -.965)"></rect>
            <path fill="#fff" d="M-113.515 53.36q-11.47 0-20.26-4.69-8.8-4.69-13.79-13.86-4.99-9.16-4.99-22.57 0-13.71 5.14-22.72 5.14-9.02 13.93-13.49 8.79-4.47 19.82-4.47 11.47 0 20.26 4.62 8.8 4.62 13.86 13.78 5.07 9.17 5.07 22.73 0 13.7-5.07 22.79-5.06 9.09-13.93 13.49-8.87 4.39-20.04 4.39m.74-14.3q6.26 0 10.58-2.91 4.32-2.9 6.63-8.71 2.31-5.81 2.31-13.86 0-8.49-2.46-14.53-2.45-6.03-7-9.31-4.54-3.28-11.4-3.28-5.96 0-10.43 2.91-4.47 2.9-6.78 8.57-2.31 5.66-2.31 14 0 13.11 5.59 20.12 5.59 7 15.27 7" paint-order="stroke"></path>
            <rect width="78.08" height="81.8" x="-39.04" y="-40.9" fill="none" rx="0" ry="0" transform="matrix(1 0 0 1 -113.015 12.96)"></rect>
            <path fill="#fff" d="M-24.565 53.36q-11.47 0-20.26-4.69-8.79-4.69-13.78-13.86-5-9.16-5-22.57 0-13.71 5.14-22.72 5.15-9.02 13.94-13.49 8.79-4.47 19.81-4.47 11.48 0 20.27 4.62t13.85 13.78q5.07 9.17 5.07 22.73 0 13.7-5.07 22.79-5.06 9.09-13.93 13.49-8.86 4.39-20.04 4.39m.75-14.3q6.26 0 10.58-2.91 4.32-2.9 6.63-8.71 2.31-5.81 2.31-13.86 0-8.49-2.46-14.53-2.46-6.03-7.01-9.31-4.54-3.28-11.39-3.28-5.96 0-10.43 2.91-4.47 2.9-6.78 8.57-2.31 5.66-2.31 14 0 13.11 5.58 20.12 5.59 7 15.28 7" paint-order="stroke"></path>
            <rect width="78.08" height="81.8" x="-39.04" y="-40.9" fill="none" rx="0" ry="0" transform="matrix(1 0 0 1 -24.065 12.96)"></rect>
            <path fill="#fff" d="M29.825 51.43V-26.5h15.34l-.44 23.84h2.68q2.09-8.64 5.44-14.38 3.35-5.74 8.27-8.57 4.91-2.83 11.32-2.83 7.15 0 11.77 3.28 4.62 3.28 7.08 9.02 2.46 5.73 3.05 13.33h2.39q1.94-8.64 5.59-14.3 3.65-5.67 8.94-8.5 5.29-2.83 11.69-2.83 6.26 0 11.03 2.54 4.77 2.53 7.97 7.37t4.77 12.14q1.56 7.31 1.56 16.84v40.98h-18.92V12.84q0-8.35-1.42-13.86-1.41-5.51-4.32-8.27-2.9-2.76-7.52-2.76-5.22 0-9.09 3.43t-6.11 9.61q-2.23 6.18-2.68 14.08v36.36h-18.48v-37.7q0-8.64-1.49-14.38t-4.47-8.57q-2.98-2.83-7.6-2.83-5.36 0-9.16 3.58-3.8 3.57-5.96 9.83t-2.46 14.01v36.06Z" paint-order="stroke"></path>
            <rect width="118.45" height="79.87" x="-59.225" y="-39.935" fill="none" rx="0" ry="0" transform="matrix(1 0 0 1 89.55 11.995)"></rect>
            <path fill="#FF9E0D" d="M172.415 53.21q-6.11 0-9.24-2.68t-3.13-8.34q0-5.81 3.13-8.49 3.13-2.69 9.24-2.69 6.41 0 9.61 2.69 3.2 2.68 3.2 8.49 0 11.02-12.81 11.02" paint-order="stroke"></path>
            <rect width="25.18" height="22.2" x="-12.59" y="-11.1" fill="none" rx="0" ry="0" transform="matrix(1 0 0 1 173.135 42.61)"></rect>
        </g>
    </g>
    <path fill="#FF9E0D" d="M123.702 77.029V64.78l-14.639-6.1c-.406-1.148-.837-2.261-1.364-3.349l5.909-14.712-8.66-8.66-14.58 6.005a34.108 34.108 0 0 0-3.42-1.41L80.74 22.01H68.493L62.44 36.507c-1.22.43-2.391.885-3.552 1.436l-14.555-5.849-8.66 8.66 5.933 14.423c-.574 1.185-1.04 2.392-1.483 3.636l-14.4 6.16v12.248l14.411 6.004c.443 1.244.921 2.452 1.495 3.636l-5.823 14.52 8.659 8.66 14.46-5.957c1.16.55 2.345.992 3.564 1.41l6.196 14.497h12.247l6.064-14.568c1.16-.43 2.308-.884 3.409-1.41l14.687 5.884 8.66-8.66-6.028-14.615c.514-1.1.933-2.213 1.34-3.349zM74.616 89.372c-10.143 0-18.37-8.228-18.37-18.371 0-10.143 8.227-18.371 18.37-18.371S92.988 60.858 92.988 71c0 10.143-8.229 18.371-18.372 18.371"></path>
</svg></svg>